<svg xmlns="http://www.w3.org/2000/svg" xmlns:xlink="http://www.w3.org/1999/xlink" viewBox="0 0 1002.75 974.249975" preserveAspectRatio="xMidYMid meet" version="1.0"><defs><clipPath id="cli-756cd611d4"><path d="M 0.261719 374.84375 L 1001.863281 374.84375 L 1001.863281 721.679688 L 0.261719 721.679688 Z M 0.261719 374.84375" clip-rule="nonzero"/></clipPath><clipPath id="cli-05de8f2996"><path d="M 0.261719 0.84375 L 1001.863281 0.84375 L 1001.863281 347.679688 L 0.261719 347.679688 Z M 0.261719 0.84375" clip-rule="nonzero"/></clipPath><clipPath id="cli-52bf5bf357"><rect x="0" width="1002" y="0" height="348"/></clipPath><clipPath id="cli-b9295779c8"><path d="M 75.359375 261.902344 L 924.445312 261.902344 L 924.445312 394.875 L 75.359375 394.875 Z M 75.359375 261.902344" clip-rule="nonzero"/></clipPath><clipPath id="cli-0f272b3b95"><path d="M 0.359375 0.902344 L 849.445312 0.902344 L 849.445312 133.875 L 0.359375 133.875 Z M 0.359375 0.902344" clip-rule="nonzero"/></clipPath><clipPath id="cli-1849d4abbf"><rect x="0" width="850" y="0" height="134"/></clipPath><clipPath id="cli-1e4f1f0c78"><path d="M 187.515625 686.199219 L 408.132812 686.199219 L 408.132812 973.09375 L 187.515625 973.09375 Z M 187.515625 686.199219" clip-rule="nonzero"/></clipPath><clipPath id="cli-adf9eace7b"><path d="M 0.515625 0.199219 L 221.132812 0.199219 L 221.132812 287.09375 L 0.515625 287.09375 Z M 0.515625 0.199219" clip-rule="nonzero"/></clipPath><clipPath id="cli-a8219fe72e"><rect x="0" width="222" y="0" height="288"/></clipPath><clipPath id="cli-2de9f63656"><path d="M 584.050781 686.199219 L 804.667969 686.199219 L 804.667969 973.09375 L 584.050781 973.09375 Z M 584.050781 686.199219" clip-rule="nonzero"/></clipPath><clipPath id="cli-205d6a655b"><path d="M 0.0507812 0.199219 L 220.667969 0.199219 L 220.667969 287.09375 L 0.0507812 287.09375 Z M 0.0507812 0.199219" clip-rule="nonzero"/></clipPath><clipPath id="cli-4393805ec9"><rect x="0" width="221" y="0" height="288"/></clipPath><clipPath id="cli-3157dfb185"><path d="M 452.703125 99.003906 L 541.84375 99.003906 L 541.84375 290.84375 L 452.703125 290.84375 Z M 452.703125 99.003906" clip-rule="nonzero"/></clipPath><clipPath id="cli-120660255f"><path d="M 0.703125 0.00390625 L 89.84375 0.00390625 L 89.84375 191.84375 L 0.703125 191.84375 Z M 0.703125 0.00390625" clip-rule="nonzero"/></clipPath><clipPath id="cli-5bd92e296a"><rect x="0" width="90" y="0" height="192"/></clipPath><clipPath id="cli-ffec25817d"><path d="M 408.132812 0 L 584.050781 0 L 584.050781 157.507812 L 408.132812 157.507812 Z M 408.132812 0" clip-rule="nonzero"/></clipPath><clipPath id="cli-18dce0d8eb"><path d="M 0.132812 0 L 176.050781 0 L 176.050781 157.507812 L 0.132812 157.507812 Z M 0.132812 0" clip-rule="nonzero"/></clipPath><clipPath id="cli-9325e237cf"><rect x="0" width="177" y="0" height="158"/></clipPath><clipPath id="cli-f72d4ec600"><path d="M 297.824219 374.84375 L 373.816406 374.84375 L 373.816406 532.351562 L 297.824219 532.351562 Z M 297.824219 374.84375" clip-rule="nonzero"/></clipPath><clipPath id="cli-4566ade12b"><path d="M 0.824219 0.84375 L 76.816406 0.84375 L 76.816406 158.351562 L 0.824219 158.351562 Z M 0.824219 0.84375" clip-rule="nonzero"/></clipPath><clipPath id="cli-5061fa8aad"><rect x="0" width="77" y="0" height="159"/></clipPath><clipPath id="cli-9d3eb6a227"><path d="M 618.367188 374.84375 L 694.359375 374.84375 L 694.359375 532.351562 L 618.367188 532.351562 Z M 618.367188 374.84375" clip-rule="nonzero"/></clipPath><clipPath id="cli-ad6b57964b"><path d="M 0.367188 0.84375 L 76.359375 0.84375 L 76.359375 158.351562 L 0.367188 158.351562 Z M 0.367188 0.84375" clip-rule="nonzero"/></clipPath><clipPath id="cli-b4df203a6c"><rect x="0" width="77" y="0" height="159"/></clipPath></defs><g clip-path="url(#cli-756cd611d4)"><g transform="matrix(1, 0, 0, 1, 0, 374)"><g clip-path="url(#cli-52bf5bf357)"><g clip-path="url(#cli-05de8f2996)"><path fill="#97c6ff" d="M 0.261719 0.84375 L 1001.484375 0.84375 L 1001.484375 347.679688 L 0.261719 347.679688 Z M 0.261719 0.84375" fill-opacity="1" fill-rule="nonzero"/></g></g></g></g><g clip-path="url(#cli-b9295779c8)"><g transform="matrix(1, 0, 0, 1, 75, 261)"><g clip-path="url(#cli-1849d4abbf)"><g clip-path="url(#cli-0f272b3b95)"><path fill="#97c6ff" d="M 0.359375 0.902344 L 849.625 0.902344 L 849.625 133.875 L 0.359375 133.875 Z M 0.359375 0.902344" fill-opacity="1" fill-rule="nonzero"/></g></g></g></g><g clip-path="url(#cli-1e4f1f0c78)"><g transform="matrix(1, 0, 0, 1, 187, 686)"><g clip-path="url(#cli-a8219fe72e)"><g clip-path="url(#cli-adf9eace7b)"><path fill="#97c6ff" d="M 0.515625 0.199219 L 221.132812 0.199219 L 221.132812 287.175781 L 0.515625 287.175781 Z M 0.515625 0.199219" fill-opacity="1" fill-rule="nonzero"/></g></g></g></g><g clip-path="url(#cli-2de9f63656)"><g transform="matrix(1, 0, 0, 1, 584, 686)"><g clip-path="url(#cli-4393805ec9)"><g clip-path="url(#cli-205d6a655b)"><path fill="#97c6ff" d="M 0.0507812 0.199219 L 220.667969 0.199219 L 220.667969 287.175781 L 0.0507812 287.175781 Z M 0.0507812 0.199219" fill-opacity="1" fill-rule="nonzero"/></g></g></g></g><g clip-path="url(#cli-3157dfb185)"><g transform="matrix(1, 0, 0, 1, 452, 99)"><g clip-path="url(#cli-5bd92e296a)"><g clip-path="url(#cli-120660255f)"><path fill="#97c6ff" d="M 0.703125 0.00390625 L 89.84375 0.00390625 L 89.84375 191.863281 L 0.703125 191.863281 Z M 0.703125 0.00390625" fill-opacity="1" fill-rule="nonzero"/></g></g></g></g><g clip-path="url(#cli-ffec25817d)"><g transform="matrix(1, 0, 0, 1, 408, 0)"><g clip-path="url(#cli-9325e237cf)"><g clip-path="url(#cli-18dce0d8eb)"><path fill="#97c6ff" d="M 0.132812 0 L 176.101562 0 L 176.101562 157.507812 L 0.132812 157.507812 Z M 0.132812 0" fill-opacity="1" fill-rule="nonzero"/></g></g></g></g><g clip-path="url(#cli-f72d4ec600)"><g transform="matrix(1, 0, 0, 1, 297, 374)"><g clip-path="url(#cli-5061fa8aad)"><g clip-path="url(#cli-4566ade12b)"><path fill="#353535" d="M 0.824219 0.84375 L 76.816406 0.84375 L 76.816406 158.46875 L 0.824219 158.46875 Z M 0.824219 0.84375" fill-opacity="1" fill-rule="nonzero"/></g></g></g></g><g clip-path="url(#cli-9d3eb6a227)"><g transform="matrix(1, 0, 0, 1, 618, 374)"><g clip-path="url(#cli-b4df203a6c)"><g clip-path="url(#cli-ad6b57964b)"><path fill="#353535" d="M 0.367188 0.84375 L 76.359375 0.84375 L 76.359375 158.46875 L 0.367188 158.46875 Z M 0.367188 0.84375" fill-opacity="1" fill-rule="nonzero"/></g></g></g></g></svg>
